<svg id="canvas" height="auto" xmlns="http://www.w3.org/2000/svg" version="1.1" xmlns:xlink="http://www.w3.org/1999/xlink" xmlns:svgjs="http://svgjs.dev/svgjs" viewBox="0 0 900 512" width="auto" style="width: auto; height: auto;"><defs><linearGradient gradientTransform="matrix(6.123233995736766e-17,1,-1,6.123233995736766e-17,0,0)"><stop stop-color="#6d9dc9" offset="0"/><stop stop-color="hsv(269, 46%, 79%)" offset="1"/></linearGradient><linearGradient gradientTransform="matrix(6.123233995736766e-17,1,-1,6.123233995736766e-17,0,0)"><stop stop-color="#385169" offset="0"/><stop stop-color="hsv(269, 46%, 41%)" offset="1"/></linearGradient><linearGradient gradientTransform="matrix(6.123233995736766e-17,1,-1,6.123233995736766e-17,0,0)" id="SvgjsLinearGradient1316"><stop stop-color="#162029" offset="0"/><stop stop-color="hsv(269, 46%, 16%)" offset="1"/></linearGradient><linearGradient gradientTransform="matrix(6.123233995736766e-17,1,-1,6.123233995736766e-17,0,0)"><stop stop-color="#4a6b8a" offset="0"/><stop stop-color="hsv(269, 46%, 54%)" offset="1"/></linearGradient><linearGradient gradientTransform="matrix(6.123233995736766e-17,1,-1,6.123233995736766e-17,0,0)"><stop stop-color="#5b83a8" offset="0"/><stop stop-color="hsv(269, 46%, 66%)" offset="1"/></linearGradient><linearGradient gradientTransform="matrix(6.123233995736766e-17,1,-1,6.123233995736766e-17,0,0)" id="SvgjsLinearGradient1317"><stop stop-color="#7db4e8" offset="0"/><stop stop-color="hsv(269, 46%, 91%)" offset="1"/></linearGradient><linearGradient gradientTransform="matrix(6.123233995736766e-17,1,-1,6.123233995736766e-17,0,0)"><stop stop-color="#283a4a" offset="0"/><stop stop-color="hsv(269, 46%, 29%)" offset="1"/></linearGradient></defs><rect width="900" height="512" fill="#324556ff"/><path d="M625.7621302841635 441.4447991367789C570.4741523336991 461.80086616114784 473.8935150585901 423.9445917841157 409.20029677505664 414.62185478207266C344.5070784915232 405.29911778002963 285.24057828697255 411.92252539119477 237.60282058296298 385.5083771245205C189.9650628789534 359.09422885784625 151.97332991634812 305.3746995691175 123.37375055099915 256.1369651820269C94.77417118565018 206.89923079493633 65.5457026806959 143.7807752151894 66.00534439086914 90.08197080197698C66.46498610104238 36.38316638876455 95.74151267450418 -16.701511992120345 126.13160081203864 -66.0558612972475C156.5216889495731 -115.41021060237466 203.17208324768959 -176.97904543620186 248.34587321607592 -206.04412502878597C293.5196631844623 -235.10920462137008 344.7721797020192 -239.69804470326017 397.17434062235657 -240.44633885275215C449.57650154269396 -241.19463300224413 520.4099579763682 -237.87754250136206 562.7588387381004 -210.5338899257378C605.1077194998326 -183.19023735011356 624.9276913041812 -123.55580944735578 651.2676251927497 -76.38442339900664C677.6075590813183 -29.213037350657487 705.8550188553293 11.016113691879468 720.7984420695116 72.49442636435703C735.7418652836939 133.97273903683458 756.7675497754012 230.99372384045512 740.9281644778432 292.4854526358588C725.0887791802852 353.97718143126247 681.0501082346279 421.08873211240996 625.7621302841635 441.4447991367789C570.4741523336991 461.80086616114784 473.8935150585901 423.9445917841157 409.20029677505664 414.62185478207266 " fill="none" stroke-width="4" stroke="url(#SvgjsLinearGradient1316)" opacity="0.5"/><path d="M281.35168053226914 635.8804547946213C232.63285336236197 651.901643615744 157.50834785909592 622.5172099975778 102.19514269586739 616.6764394094748C46.88193753263886 610.8356688213717 -6.194151415071502 626.5349781438581 -50.52755044710207 600.835831266003C-94.86094947913264 575.1366843881476 -131.98737243876585 506.06316497426934 -163.805251496316 462.48155814234343C-195.62313055386616 418.8999513104175 -231.93075705692425 383.0798289550592 -241.434824792403 339.34619027444745C-250.93889252788173 295.6125515938357 -231.76894353280673 246.73509604379774 -220.82965790918843 200.07972605867275C-209.89037228557012 153.42435607354778 -203.48719925854436 94.40413721143531 -175.79911105069317 59.41397036369759C-148.11102284284198 24.42380351595986 -96.04315630401535 11.422054523233157 -54.70112866208137 -9.861275027753663C-13.359101020147392 -31.144604578740484 15.761805852571968 -66.39667270019066 72.25305480091066 -68.28600694222331C128.74430374924935 -70.17534118425596 226.33055770785506 -44.77691748732512 284.2463650279508 -21.19728047994954C342.1621723480465 2.3823565274260403 394.61492614665815 33.56146690470382 419.74789872148483 73.1918151020302C444.8808712963115 112.82216329935659 428.40342211220934 166.97689213247185 435.0442004769111 216.58480870400882C441.68497884161286 266.1927252755458 466.3485847032955 320.17856490146363 459.5925689096954 370.839314531252C452.8365531160953 421.50006416104037 424.2149204448815 476.37578310551095 394.5081057153104 520.5493064827392C364.80129098573934 564.7228298599673 330.0705077021763 619.8592659734989 281.35168053226914 635.8804547946213C232.63285336236197 651.901643615744 157.50834785909592 622.5172099975778 102.19514269586739 616.6764394094748 " fill="none" stroke-width="4" stroke="url(#SvgjsLinearGradient1317)" opacity="0.5"/><path d="M422.8735563837689 430.3704729093229C365.66513348537154 458.34166149228787 259.47105922401727 422.9064678408594 188.331632653825 414.88417579202627C117.19220608363275 406.8618837431931 46.0373844525196 411.5382033292962 -3.9630030373847944 382.236720616324C-53.96339052728919 352.93523790335183 -92.01122003177473 297.9473416846475 -111.67069228560143 239.07527951419303C-131.33016453942815 180.20321734373857 -142.71702992924696 90.28585934964167 -121.91983656034506 29.00434759359746C-101.12264319144316 -32.27716416244678 -40.815115735017514 -88.84884743353521 13.112467927810002 -128.61379102207235C67.04005159063752 -168.37873461060948 137.66588251130702 -210.15998087489805 201.6456654166201 -209.58531393762536C265.62544832193316 -209.01064700035266 341.26938475127537 -164.99655878339217 396.99116535968847 -125.16578939843623C452.7129459681015 -85.3350200134803 513.5445149530118 -32.637836576668604 535.9763490670986 29.399302372110213C558.4081831811853 91.43644132088906 550.4326354914309 180.2285158713679 531.5821700442093 247.05704429423668C512.7317045969877 313.8855727171055 480.08197928216634 402.399284326358 422.8735563837689 430.3704729093229C365.66513348537154 458.34166149228787 259.47105922401727 422.9064678408594 188.331632653825 414.88417579202627 " fill="none" stroke-width="4" stroke="url(#SvgjsLinearGradient1317)" opacity="0.5"/></svg>