<svg id="visual" viewBox="0 0 1980 920" width="1980" height="920" xmlns="http://www.w3.org/2000/svg" xmlns:xlink="http://www.w3.org/1999/xlink" version="1.1"><rect x="0" y="0" width="1980" height="920" fill="#324556"></rect><defs><linearGradient id="grad1_0" x1="53.5%" y1="0%" x2="100%" y2="100%"><stop offset="6.95652173913044%" stop-color="#324556" stop-opacity="1"></stop><stop offset="93.04347826086956%" stop-color="#324556" stop-opacity="1"></stop></linearGradient></defs><defs><linearGradient id="grad2_0" x1="0%" y1="0%" x2="46.5%" y2="100%"><stop offset="6.95652173913044%" stop-color="#324556" stop-opacity="1"></stop><stop offset="93.04347826086956%" stop-color="#324556" stop-opacity="1"></stop></linearGradient></defs><g transform="translate(1980, 0)"><path d="M0 690C-66.4 669.4 -132.8 648.7 -205.5 632.5C-278.2 616.2 -357.3 604.3 -405.6 558.2C-453.8 512.2 -471.1 431.9 -510.5 370.9C-549.8 309.9 -611.2 268.1 -644.8 209.5C-678.4 150.9 -684.2 75.5 -690 0L0 0Z" fill="#6d9dc9"></path></g><g transform="translate(0, 920)"><path d="M0 -690C74.2 -686.4 148.4 -682.8 213.2 -656.2C278.1 -629.6 333.5 -580.1 387.4 -533.1C441.2 -486.2 493.3 -441.9 534 -387.9C574.6 -333.9 603.6 -270.2 627.7 -204C651.8 -137.7 670.9 -68.8 690 0L0 0Z" fill="#6d9dc9"></path></g></svg>