<svg id="visual" viewBox="0 0 1980 920" width="1980" height="920" xmlns="http://www.w3.org/2000/svg" xmlns:xlink="http://www.w3.org/1999/xlink" version="1.1"><rect x="0" y="0" width="1980" height="920" fill="#6d9dc9"></rect><defs><linearGradient id="grad1_0" x1="53.5%" y1="0%" x2="100%" y2="100%"><stop offset="6.95652173913044%" stop-color="#6d9dc9" stop-opacity="1"></stop><stop offset="93.04347826086956%" stop-color="#6d9dc9" stop-opacity="1"></stop></linearGradient></defs><defs><linearGradient id="grad2_0" x1="0%" y1="0%" x2="46.5%" y2="100%"><stop offset="6.95652173913044%" stop-color="#6d9dc9" stop-opacity="1"></stop><stop offset="93.04347826086956%" stop-color="#6d9dc9" stop-opacity="1"></stop></linearGradient></defs><g transform="translate(1980, 0)"><path d="M0 782C-105 773.1 -210 764.2 -299.3 722.5C-388.6 680.7 -462.2 606.1 -531 531C-599.9 456 -663.9 380.6 -704.9 292C-745.9 203.4 -764 101.7 -782 0L0 0Z" fill="#324556"></path></g><g transform="translate(0, 920)"><path d="M0 -782C93.1 -750 186.2 -717.9 284 -685.5C381.7 -653.1 484 -620.3 553 -553C621.9 -485.6 657.5 -383.8 690.1 -285.9C722.8 -188 752.4 -94 782 0L0 0Z" fill="#324556"></path></g></svg>