<svg id="canvas" height="auto" xmlns="http://www.w3.org/2000/svg" version="1.1" xmlns:xlink="http://www.w3.org/1999/xlink" xmlns:svgjs="http://svgjs.dev/svgjs" viewBox="0 0 1920 200" width="auto" style="width: auto; height: auto;"><rect width="1920" height="200" fill="#324556ff"/><path d="M1193.2806378825003 421.81999644901487C1145.923635740217 449.76604648471186 1089.998701036711 467.2701149433601 1034.2034120888336 470.9418370734219C978.4081231409561 474.61355920348365 908.7468386017388 466.9293931971081 858.5089041952355 443.85032922938535C808.270969788732 420.7712652616626 769.2599990227229 376.77372557772435 732.7758056498133 332.4674532670854C696.2916122769035 288.1611809564464 653.0042388787712 234.8896135099385 639.6037439577772 178.01269536555128C626.2032490367832 121.135777221164 639.4024449994648 49.83771487122465 652.3728361238494 -8.79405559923822C665.343227248234 -67.42582606970109 678.0764405358361 -131.8518840979482 717.4260907040849 -173.77792745722599C756.7757408723337 -215.70397081650378 829.9848603112373 -234.99370275008874 888.4707371333425 -260.35031575490507C946.9566139554477 -285.7069287597214 1013.0503805530194 -323.8920983448861 1068.3413516367161 -325.9176054861239C1123.6323227204127 -327.94311262736164 1169.7877264954736 -298.6222793090309 1220.2165636355223 -272.5033586023318C1270.645400775571 -246.3844378956327 1328.0270258262817 -217.86125773828624 1370.9143744770086 -169.20408124592927C1413.8017231277354 -120.5469047535723 1456.7107367628612 -43.85115805307379 1477.5406555398831 19.439700351810075C1498.370574316905 82.73055875669394 1522.426425572032 163.23676309880227 1495.8938871391406 210.5410691833739C1469.361348706249 257.84537526794554 1368.780966485307 268.0523823149664 1318.3454249425338 303.2655368592399C1267.9098833997605 338.4786914035134 1240.6376400247837 393.87394641331787 1193.2806378825003 421.81999644901487C1145.923635740217 449.76604648471186 1089.998701036711 467.2701149433601 1034.2034120888336 470.9418370734219 " fill="#7cabd5" stroke="none" opacity="0.5"/><path d="M231.32413498752248 529.3936084121372C174.73869966544453 542.5473799136207 78.65259103555093 486.02100934724274 14.952509440461995 474.85317968144227C-48.74757215462694 463.6853500156418 -105.61198151706714 475.80778404837145 -150.8763545830112 462.38663041733446C-196.14072764895525 448.9654767862975 -222.3083241714762 430.775221938482 -256.6337289552023 394.32625789522C-290.95913373892836 357.87729385195803 -342.8267485088809 301.42195056034075 -356.82878328536776 243.69284615776257C-370.83081806185464 185.96374175518434 -353.3290819037047 107.70927780213816 -340.64593761412357 47.951631479750745C-327.9627933245424 -11.806014842636642 -318.34869630534337 -73.99382666576307 -280.7299175478807 -114.85303177656178C-243.111138790418 -155.7122368873605 -171.2629884125504 -172.31958876620064 -114.93326506934744 -197.20359918504158C-58.60354172614444 -222.08760960388253 1.6324656042784227 -263.17900012759765 57.248422511337196 -264.15709428960747C112.86437941839597 -265.1351884516173 166.15362316251162 -229.1382614080348 218.76247637300503 -203.07216415710036C271.37132958349844 -177.00606690616593 330.7835490619974 -155.23279925559083 372.9015417742978 -107.76051078400076C415.0195344865982 -60.28822231241068 450.82467833635394 18.686633224715933 471.47043264680724 81.76156667244015C492.11618695726054 144.83650012016437 516.2769528493305 218.32759256899442 496.7760676370176 270.68908990234456C477.27518242470467 323.0505872356947 398.70711014784524 352.813130920909 354.4651213729294 395.930550672541C310.22313259801354 439.04797042417306 287.90957030960044 516.2398369106536 231.32413498752248 529.3936084121372C174.73869966544453 542.5473799136207 78.65259103555093 486.02100934724274 14.952509440461995 474.85317968144227 " fill="#455f76" stroke="none" opacity="0.5"/><path d="M1154.541652817079 533.2829125187075C1083.8266126639605 569.4665400828643 946.9185919159554 536.8010390272525 859.2433261502363 524.5446473023782C771.5680603845171 512.2882555775038 685.8281900479824 497.17783687110193 628.4900582227643 459.74456216946135C571.1519263975463 422.31128746782076 538.7000731453867 369.097721028765 515.2145351989279 299.944999092535C491.72899725246907 230.79227715630506 464.91299999616405 120.33173379038229 487.57683054401167 44.828230552081465C510.2406610918593 -30.67527268621936 585.3273613206077 -103.86448663187144 651.1975184860135 -153.0760203372699C717.0676756514193 -202.28755404266838 809.3463560702012 -250.09212784113788 882.7977735364466 -250.4409716803094C956.2491910026919 -250.7898155194809 1030.4671895519145 -201.49113110195796 1091.9060232834856 -155.16908337229896C1153.3448570150567 -108.84703564263995 1219.4928519616305 -49.61067951731147 1251.430775925874 27.491314697644583C1283.3686998901176 104.59330891260063 1299.6817542537456 223.14428228059356 1283.5335670689465 307.4428819174374C1267.3853798841474 391.7414815542812 1225.2566929701975 497.0992849545506 1154.541652817079 533.2829125187075C1083.8266126639605 569.4665400828643 946.9185919159554 536.8010390272525 859.2433261502363 524.5446473023782 " fill="#1f2b36" stroke="none" opacity="0.5"/></svg>