<svg id="canvas" height="auto" xmlns="http://www.w3.org/2000/svg" version="1.1" xmlns:xlink="http://www.w3.org/1999/xlink" xmlns:svgjs="http://svgjs.dev/svgjs" viewBox="0 0 1920 200" width="auto" style="width: auto; height: auto;"><rect width="1920" height="200" fill="#324556ff"/><path d="M632.3498125467415 331.3606848064215C571.1437672063472 355.0293260421899 474.31798885225396 327.0334342150332 404.55919366861417 319.35609427721926C334.8003984849744 311.6787543394053 265.97450766563657 307.71957467090846 213.79704144490287 285.29664517953785C161.61957522416915 262.87371568816724 123.28808838149715 234.68995196451868 91.4943963442119 184.81851732899537C59.70070430692667 134.94708269347205 21.686373171970626 51.37238951981715 23.034889221191406 -13.931962633601927C24.383405270412187 -79.236314787021 64.99552384464302 -147.49171038850545 99.5854926395366 -207.0075955915192C134.1754614344302 -266.52348079453293 177.3885117209931 -338.96079060044826 230.57470199055288 -371.02727385168436C283.76089226011266 -403.09375710292045 354.37566679286283 -398.9730452902398 418.70263425689524 -399.4064950989359C483.02960172092764 -399.83994490763206 552.403059493802 -405.9727550703895 616.5365067747473 -373.6279727038612C680.6699540556926 -341.2831903373329 760.4303891471366 -267.4978290308312 803.5033179425676 -205.33780089976605C846.5762467379986 -143.1777727687009 880.2587215859318 -64.4481452111994 874.9740795473339 -0.6678039174702235C869.689437508736 63.112537376258956 812.2328435444122 122.00616540862694 771.7954657109801 177.34424686260894C731.3580878775481 232.68232831659094 693.5558578871359 307.6920435706531 632.3498125467415 331.3606848064215C571.1437672063472 355.0293260421899 474.31798885225396 327.0334342150332 404.55919366861417 319.35609427721926 " fill="#7cabd5" stroke="none" opacity="0.5"/><path d="M931.1785353963069 617.9259789299065C889.1506751654262 667.3733504862646 852.8863025010735 743.0223923641806 793.5707945384993 759.7497687845296C734.2552865759251 776.4771452048783 636.327170757053 763.7920425210459 575.2854876208618 718.2902374519997C514.2438044846706 672.7884323829535 463.70158020762494 556.6125751964312 427.320695721352 486.7389383702519C390.93981123507905 416.86530154407257 357.09283095078524 360.5197649578953 357.00018070322403 299.0484164949239C356.9075304556628 237.57706803195254 392.45863892266453 174.6202134816886 426.76479423598477 117.91084759242375C461.070949549305 61.20148170315892 505.0729770831729 -9.217031127549959 562.8371125831454 -41.20777884066507C620.601248083118 -73.19852655378018 703.5684059159912 -74.1380397920269 773.34960723582 -74.0336386862669C843.1308085556489 -73.92923758050689 933.793479659543 -69.55060711969935 981.5243205021183 -40.58137220610507C1029.2551613446935 -11.612137292510795 1036.6324773405254 45.483712720732115 1059.7346522912715 99.78177079529877C1082.8368272420175 154.07982886986542 1122.4701529345089 224.6596814661146 1120.1373702065944 285.20697624129485C1117.8045874786799 345.7542710164751 1077.2310950588317 407.61237233161165 1045.7379559237836 463.0655394463802C1014.2448167887356 518.5187065611487 973.2063956271876 568.4786073735481 931.1785353963069 617.9259789299065C889.1506751654262 667.3733504862646 852.8863025010735 743.0223923641806 793.5707945384993 759.7497687845296 " fill="#455f76" stroke="none" opacity="0.5"/><path d="M1108.611411333136 577.2966773950632C1063.778471508072 612.1287840437573 1019.7104241833667 649.0179994050138 963.7896856061523 659.1557709512906C907.8689470289377 669.2935424975674 829.4445876003131 673.8406904666329 773.086979869849 638.1233066727235C716.7293721393849 602.4059228788142 665.4333790202706 502.13812910408365 625.6440392233674 444.85146818783426C585.8546994264642 387.56480727158487 545.7299952226415 343.6507803520915 534.3509410884299 294.4033411752273C522.9718869542182 245.15590199836308 543.0687794790066 203.75273110748824 557.3697144180979 149.3668331266488C571.6706493571893 94.98093514580935 585.6213819358047 17.465049154461184 620.156550722978 -31.912046709809232C654.691719510151 -81.28914257407965 711.1234280701199 -119.31444331869598 764.5807271411367 -146.8957420589737C818.0380262121535 -174.47704079925143 887.6133948418378 -198.4094469196413 940.9003451490785 -197.39983915147556C994.1872954563191 -196.3902313833098 1036.0259982688144 -165.71202895802057 1084.3024289845812 -140.83809544997914C1132.578859700348 -115.9641619419377 1184.8944592470855 -95.38846455214218 1230.5589294436788 -48.15623810322694C1276.2233996402722 -0.9240116543116983 1333.8866245376746 79.45504081069404 1358.2892501641413 142.55526324351231C1382.691875790608 205.65548567633058 1397.8916708037468 279.1771185244138 1376.9746832024794 330.44509649368274C1356.057695601212 381.7130744629517 1277.5145365347598 409.02120090889616 1232.7873245565359 450.1631310591263C1188.0601125783119 491.3050612093564 1153.4443511581999 542.4645707463691 1108.611411333136 577.2966773950632C1063.778471508072 612.1287840437573 1019.7104241833667 649.0179994050138 963.7896856061523 659.1557709512906 " fill="#455f76" stroke="none" opacity="0.5"/></svg>