<svg id="visual" viewBox="0 0 1200 800" width="1200" height="800" xmlns="http://www.w3.org/2000/svg" xmlns:xlink="http://www.w3.org/1999/xlink" version="1.1"><rect x="0" y="0" width="1200" height="800" fill="#fafafa"></rect><path d="M0 619L28.5 624.7C57 630.3 114 641.7 171.2 655.3C228.3 669 285.7 685 342.8 692.8C400 700.7 457 700.3 514.2 700C571.3 699.7 628.7 699.3 685.8 691.3C743 683.3 800 667.7 857.2 667.2C914.3 666.7 971.7 681.3 1028.8 670.8C1086 660.3 1143 624.7 1171.5 606.8L1200 589L1200 801L1171.5 801C1143 801 1086 801 1028.8 801C971.7 801 914.3 801 857.2 801C800 801 743 801 685.8 801C628.7 801 571.3 801 514.2 801C457 801 400 801 342.8 801C285.7 801 228.3 801 171.2 801C114 801 57 801 28.5 801L0 801Z" fill="#d0587f"></path><path d="M0 677L28.5 684.8C57 692.7 114 708.3 171.2 710C228.3 711.7 285.7 699.3 342.8 689C400 678.7 457 670.3 514.2 667C571.3 663.7 628.7 665.3 685.8 662.3C743 659.3 800 651.7 857.2 658C914.3 664.3 971.7 684.7 1028.8 694.2C1086 703.7 1143 702.3 1171.5 701.7L1200 701L1200 801L1171.5 801C1143 801 1086 801 1028.8 801C971.7 801 914.3 801 857.2 801C800 801 743 801 685.8 801C628.7 801 571.3 801 514.2 801C457 801 400 801 342.8 801C285.7 801 228.3 801 171.2 801C114 801 57 801 28.5 801L0 801Z" fill="#5f5783"></path><path d="M0 713L28.5 713.5C57 714 114 715 171.2 718.2C228.3 721.3 285.7 726.7 342.8 727.3C400 728 457 724 514.2 721C571.3 718 628.7 716 685.8 720.2C743 724.3 800 734.7 857.2 737.3C914.3 740 971.7 735 1028.8 727.2C1086 719.3 1143 708.7 1171.5 703.3L1200 698L1200 801L1171.5 801C1143 801 1086 801 1028.8 801C971.7 801 914.3 801 857.2 801C800 801 743 801 685.8 801C628.7 801 571.3 801 514.2 801C457 801 400 801 342.8 801C285.7 801 228.3 801 171.2 801C114 801 57 801 28.5 801L0 801Z" fill="#383c3e"></path></svg>