<svg id="visual" viewBox="0 0 900 900" width="900" height="900" xmlns="http://www.w3.org/2000/svg" xmlns:xlink="http://www.w3.org/1999/xlink" version="1.1"><rect x="0" y="0" width="900" height="900" fill="#fafafa"></rect><path d="M0 37L21.5 52.2C43 67.3 86 97.7 128.8 110.5C171.7 123.3 214.3 118.7 257.2 120C300 121.3 343 128.7 385.8 130.5C428.7 132.3 471.3 128.7 514.2 128.3C557 128 600 131 642.8 132.5C685.7 134 728.3 134 771.2 128.7C814 123.3 857 112.7 878.5 107.3L900 102L900 0L878.5 0C857 0 814 0 771.2 0C728.3 0 685.7 0 642.8 0C600 0 557 0 514.2 0C471.3 0 428.7 0 385.8 0C343 0 300 0 257.2 0C214.3 0 171.7 0 128.8 0C86 0 43 0 21.5 0L0 0Z" fill="#6d9dc9"></path><path d="M0 115L21.5 103.8C43 92.7 86 70.3 128.8 75.7C171.7 81 214.3 114 257.2 133.3C300 152.7 343 158.3 385.8 153.2C428.7 148 471.3 132 514.2 117.2C557 102.3 600 88.7 642.8 82C685.7 75.3 728.3 75.7 771.2 87C814 98.3 857 120.7 878.5 131.8L900 143L900 0L878.5 0C857 0 814 0 771.2 0C728.3 0 685.7 0 642.8 0C600 0 557 0 514.2 0C471.3 0 428.7 0 385.8 0C343 0 300 0 257.2 0C214.3 0 171.7 0 128.8 0C86 0 43 0 21.5 0L0 0Z" fill="#324556"></path></svg>