<svg id="visual" viewBox="0 0 1980 920" width="1980" height="920" xmlns="http://www.w3.org/2000/svg" xmlns:xlink="http://www.w3.org/1999/xlink" version="1.1"><rect x="0" y="0" width="1980" height="920" fill="#fafafa"></rect><path d="M0 696L47.2 725.5C94.3 755 188.7 814 283 824.7C377.3 835.3 471.7 797.7 566 785.2C660.3 772.7 754.7 785.3 848.8 782.2C943 779 1037 760 1131.2 762.2C1225.3 764.3 1319.7 787.7 1414 796.3C1508.3 805 1602.7 799 1697 791.3C1791.3 783.7 1885.7 774.3 1932.8 769.7L1980 765L1980 921L1932.8 921C1885.7 921 1791.3 921 1697 921C1602.7 921 1508.3 921 1414 921C1319.7 921 1225.3 921 1131.2 921C1037 921 943 921 848.8 921C754.7 921 660.3 921 566 921C471.7 921 377.3 921 283 921C188.7 921 94.3 921 47.2 921L0 921Z" fill="#6d9dc9"></path><path d="M0 783L47.2 786.2C94.3 789.3 188.7 795.7 283 806.7C377.3 817.7 471.7 833.3 566 836.7C660.3 840 754.7 831 848.8 815.5C943 800 1037 778 1131.2 770C1225.3 762 1319.7 768 1414 782.2C1508.3 796.3 1602.7 818.7 1697 834.7C1791.3 850.7 1885.7 860.3 1932.8 865.2L1980 870L1980 921L1932.8 921C1885.7 921 1791.3 921 1697 921C1602.7 921 1508.3 921 1414 921C1319.7 921 1225.3 921 1131.2 921C1037 921 943 921 848.8 921C754.7 921 660.3 921 566 921C471.7 921 377.3 921 283 921C188.7 921 94.3 921 47.2 921L0 921Z" fill="#324556"></path></svg>