<svg id="visual" viewBox="0 0 1980 920" width="1980" height="920" xmlns="http://www.w3.org/2000/svg" xmlns:xlink="http://www.w3.org/1999/xlink" version="1.1"><rect x="0" y="0" width="1980" height="920" fill="#fafafa"></rect><path d="M0 168L47.2 164.5C94.3 161 188.7 154 283 158.3C377.3 162.7 471.7 178.3 566 182C660.3 185.7 754.7 177.3 848.8 168C943 158.7 1037 148.3 1131.2 144.3C1225.3 140.3 1319.7 142.7 1414 143.2C1508.3 143.7 1602.7 142.3 1697 136.7C1791.3 131 1885.7 121 1932.8 116L1980 111L1980 0L1932.8 0C1885.7 0 1791.3 0 1697 0C1602.7 0 1508.3 0 1414 0C1319.7 0 1225.3 0 1131.2 0C1037 0 943 0 848.8 0C754.7 0 660.3 0 566 0C471.7 0 377.3 0 283 0C188.7 0 94.3 0 47.2 0L0 0Z" fill="#6d9dc9"></path><path d="M0 151L47.2 145.2C94.3 139.3 188.7 127.7 283 126.8C377.3 126 471.7 136 566 135.3C660.3 134.7 754.7 123.3 848.8 116.2C943 109 1037 106 1131.2 101.8C1225.3 97.7 1319.7 92.3 1414 94.2C1508.3 96 1602.7 105 1697 104.8C1791.3 104.7 1885.7 95.3 1932.8 90.7L1980 86L1980 0L1932.8 0C1885.7 0 1791.3 0 1697 0C1602.7 0 1508.3 0 1414 0C1319.7 0 1225.3 0 1131.2 0C1037 0 943 0 848.8 0C754.7 0 660.3 0 566 0C471.7 0 377.3 0 283 0C188.7 0 94.3 0 47.2 0L0 0Z" fill="#4e708d"></path><path d="M0 64L47.2 63.8C94.3 63.7 188.7 63.3 283 69C377.3 74.7 471.7 86.3 566 91.5C660.3 96.7 754.7 95.3 848.8 89.2C943 83 1037 72 1131.2 71.8C1225.3 71.7 1319.7 82.3 1414 84.7C1508.3 87 1602.7 81 1697 82.5C1791.3 84 1885.7 93 1932.8 97.5L1980 102L1980 0L1932.8 0C1885.7 0 1791.3 0 1697 0C1602.7 0 1508.3 0 1414 0C1319.7 0 1225.3 0 1131.2 0C1037 0 943 0 848.8 0C754.7 0 660.3 0 566 0C471.7 0 377.3 0 283 0C188.7 0 94.3 0 47.2 0L0 0Z" fill="#324556"></path></svg>