<svg id="visual" viewBox="0 0 1200 800" width="1200" height="800" xmlns="http://www.w3.org/2000/svg" xmlns:xlink="http://www.w3.org/1999/xlink" version="1.1"><rect x="0" y="0" width="1200" height="800" fill="#fafafa"></rect><path d="M0 172L28.5 179.5C57 187 114 202 171.2 195.3C228.3 188.7 285.7 160.3 342.8 140.3C400 120.3 457 108.7 514.2 106.3C571.3 104 628.7 111 685.8 129.3C743 147.7 800 177.3 857.2 192.5C914.3 207.7 971.7 208.3 1028.8 199.8C1086 191.3 1143 173.7 1171.5 164.8L1200 156L1200 0L1171.5 0C1143 0 1086 0 1028.8 0C971.7 0 914.3 0 857.2 0C800 0 743 0 685.8 0C628.7 0 571.3 0 514.2 0C457 0 400 0 342.8 0C285.7 0 228.3 0 171.2 0C114 0 57 0 28.5 0L0 0Z" fill="#d0587f"></path><path d="M0 110L28.5 115.8C57 121.7 114 133.3 171.2 130.2C228.3 127 285.7 109 342.8 103.8C400 98.7 457 106.3 514.2 114.8C571.3 123.3 628.7 132.7 685.8 129.8C743 127 800 112 857.2 109.3C914.3 106.7 971.7 116.3 1028.8 121.7C1086 127 1143 128 1171.5 128.5L1200 129L1200 0L1171.5 0C1143 0 1086 0 1028.8 0C971.7 0 914.3 0 857.2 0C800 0 743 0 685.8 0C628.7 0 571.3 0 514.2 0C457 0 400 0 342.8 0C285.7 0 228.3 0 171.2 0C114 0 57 0 28.5 0L0 0Z" fill="#5f5783"></path><path d="M0 54L28.5 57.5C57 61 114 68 171.2 70.2C228.3 72.3 285.7 69.7 342.8 74C400 78.3 457 89.7 514.2 93.8C571.3 98 628.7 95 685.8 87.2C743 79.3 800 66.7 857.2 66.3C914.3 66 971.7 78 1028.8 84.7C1086 91.3 1143 92.7 1171.5 93.3L1200 94L1200 0L1171.5 0C1143 0 1086 0 1028.8 0C971.7 0 914.3 0 857.2 0C800 0 743 0 685.8 0C628.7 0 571.3 0 514.2 0C457 0 400 0 342.8 0C285.7 0 228.3 0 171.2 0C114 0 57 0 28.5 0L0 0Z" fill="#383c3e"></path></svg>