<svg id="canvas" height="auto" xmlns="http://www.w3.org/2000/svg" version="1.1" xmlns:xlink="http://www.w3.org/1999/xlink" xmlns:svgjs="http://svgjs.dev/svgjs" viewBox="0 0 1920 200" width="auto" style="width: auto; height: auto;"><rect width="1920" height="200" fill="#324556ff"/><path d="M774.3885181092163 659.7839374700279C705.9914046602455 697.4650878466268 589.3256160655283 678.7623459034808 505.4937566779232 672.1545215402732C421.6618972903181 665.5466971770654 331.6943269898002 661.2911859626804 271.39736178358555 620.1369912907821C211.100396577371 578.9827966188836 167.76520154250898 498.5949784051639 143.7119654406356 425.2293535088831C119.65872933876221 351.86372861260236 102.24777922862097 252.0405173789356 127.07794517234527 179.9432419130976C151.90811111606956 107.84596644725963 224.13717651456597 39.35917926397113 292.69296110298137 -7.354299286144794C361.24874569139683 -54.06777783626072 457.00010367344754 -102.30567084262363 538.4126527028379 -100.33762938759793C619.8252017322285 -98.36958793257223 711.7634335853427 -45.57779179352238 781.1682552793242 4.4539494440094245C850.5730769733057 54.48569068154123 932.390219184656 126.25053973148113 954.8415828667266 199.8528180375929C977.2929465487973 273.45509634370467 945.9519481646663 369.4124327086076 915.8764373717479 446.06761928068005C885.8009265788295 522.7228058527526 842.7856315581871 622.102787093429 774.3885181092163 659.7839374700279C705.9914046602455 697.4650878466268 589.3256160655283 678.7623459034808 505.4937566779232 672.1545215402732 " fill="#455f76" stroke="none" opacity="0.5"/><path d="M417.88961766077387 778.3964577932045C358.98298101615603 795.6124790872254 264.57407376547934 754.3046787113317 198.37790756485617 745.0583749881764C132.181741364233 735.8120712650209 70.85608689713808 747.5337393206455 20.712620457035 722.9186354542724C-29.43084598306811 698.3035315878992 -65.56673823189931 643.2785210192876 -102.4828910757625 597.3677517899378C-139.39904391962568 551.4569825605877 -186.9597760831668 504.85716655058496 -200.7842966061442 447.4540200781727C-214.60881712912163 390.05087360576033 -197.96674631993585 312.169490781872 -185.43001421362698 252.94887295546368C-172.8932821073181 193.72825512905536 -163.57854235366568 134.15457935864129 -125.56390396829096 92.1303131197227C-87.54926558291625 50.106046880804115 -15.951296019991275 25.40563557004863 42.65781609862128 0.8032755219522301C101.26692821723384 -23.799084526144167 174.5017672615237 -57.21232835935726 226.09076874338433 -55.483847168855675C277.67977022524497 -53.75536597835409 305.7144462225775 -14.043483541756757 352.1918249897851 11.174162664961727C398.6692037569927 36.39180887168021 467.41331129420496 52.8305453700016 504.95504134662997 95.82203007145523C542.496771399055 138.81351477290886 561.5613934935908 210.63482920626473 577.4422053043352 269.1230708736835C593.3230171150796 327.6113125411023 604.5106585230582 384.64495068424003 600.2399122110961 446.7514800759678C595.969165899134 508.8580094676956 582.20944319095 586.4880842711773 551.817727432563 641.76224722405C521.4260116741759 697.0364101769228 476.7962543053917 761.1804364991833 417.88961766077387 778.3964577932045C358.98298101615603 795.6124790872254 264.57407376547934 754.3046787113317 198.37790756485617 745.0583749881764 " fill="#455f76" stroke="none" opacity="0.5"/><path d="M669.6683201530111 611.604991086434C623.0229792483241 643.8305831861011 569.2500153273695 668.0056376879367 511.7860786472651 674.4176494195349C454.3221419671606 680.8296611511331 380.26306394547726 686.107043199751 324.88470007238413 650.0770614760233C269.50633619929107 614.0470797522956 218.5193331745882 514.7350141615866 179.5158954087065 458.23775907716856C140.5124576428248 401.7405039927505 103.20324710661856 361.09778607659905 90.86407347709394 311.09353096951486C78.5248998475693 261.08927586243067 91.97733933222655 212.05822276980226 105.48085363155872 158.21222843466356C118.98436793089087 104.36623409952486 137.472746941554 31.677262266594113 171.8851592730869 -11.982435041317189C206.29757160461983 -55.64213234922849 262.9276463536103 -77.61113094345237 311.9553276207563 -103.7459554128043C360.9830088879022 -129.88077988215625 400.3282015606703 -167.02852438289543 466.05124687596253 -168.79138185742883C531.7742921912547 -170.55423933196224 639.8758217416511 -141.91728582195367 706.2935995125097 -114.3231002600048C772.7113772833683 -86.7289146980559 842.9162972891481 -46.52751265781282 864.5579135011141 -3.226268485735517C886.19952971308 40.07497568634179 836.322258889547 92.35189721129191 836.1432967843052 145.48436477245897C835.9643346790634 198.61683233362604 870.8983363211498 259.63858153975445 863.4841408696635 315.5685368812667C856.0699454181772 371.49849222277885 823.960760861496 431.72468778733776 791.6581240753874 481.0640968215323C759.3554872892787 530.4035058557268 716.3136610576981 579.3793989867669 669.6683201530111 611.604991086434C623.0229792483241 643.8305831861011 569.2500153273695 668.0056376879367 511.7860786472651 674.4176494195349 " fill="none" stroke-width="4" stroke="#6a92b6" opacity="0.5"/></svg>