<svg id="canvas" height="auto" xmlns="http://www.w3.org/2000/svg" version="1.1" xmlns:xlink="http://www.w3.org/1999/xlink" xmlns:svgjs="http://svgjs.dev/svgjs" viewBox="0 0 1200 760" width="auto" style="width: auto; height: auto;"><defs><linearGradient gradientTransform="matrix(6.123233995736766e-17,1,-1,6.123233995736766e-17,0,0)"><stop stop-color="#87578c" offset="0"/><stop stop-color="hsv(354, 38%, 55%)" offset="1"/></linearGradient><linearGradient gradientTransform="matrix(6.123233995736766e-17,1,-1,6.123233995736766e-17,0,0)" id="SvgjsLinearGradient1585"><stop stop-color="#4a2f4d" offset="0"/><stop stop-color="hsv(354, 38%, 30%)" offset="1"/></linearGradient><linearGradient gradientTransform="matrix(6.123233995736766e-17,1,-1,6.123233995736766e-17,0,0)" id="SvgjsLinearGradient1586"><stop stop-color="#2c1c2e" offset="0"/><stop stop-color="hsv(354, 38%, 18%)" offset="1"/></linearGradient><linearGradient gradientTransform="matrix(6.123233995736766e-17,1,-1,6.123233995736766e-17,0,0)"><stop stop-color="#a76cad" offset="0"/><stop stop-color="hsv(354, 38%, 68%)" offset="1"/></linearGradient><linearGradient gradientTransform="matrix(6.123233995736766e-17,1,-1,6.123233995736766e-17,0,0)"><stop stop-color="#69446e" offset="0"/><stop stop-color="hsv(354, 38%, 43%)" offset="1"/></linearGradient><linearGradient gradientTransform="matrix(6.123233995736766e-17,1,-1,6.123233995736766e-17,0,0)" id="SvgjsLinearGradient1587"><stop stop-color="#e493ed" offset="0"/><stop stop-color="hsv(354, 38%, 93%)" offset="1"/></linearGradient><linearGradient gradientTransform="matrix(6.123233995736766e-17,1,-1,6.123233995736766e-17,0,0)"><stop stop-color="#c47ecc" offset="0"/><stop stop-color="hsv(354, 38%, 80%)" offset="1"/></linearGradient></defs><rect width="1200" height="760" fill="#313638ff"/><path d="M325.6777124104531 968.0721334477211C294.8692171024931 1002.5057712173519 251.25284308196848 1032.0953498665986 203.80286275368462 1039.8713359705976C156.35288242540076 1047.6473220745966 82.0319702613925 1048.0148250564007 40.97783044075004 1014.728050071714C-0.0763093798924217 981.4412750870274 -25.562270558279423 894.4207142902711 -42.521976170170205 840.1506860624777C-59.48168178206099 785.8806578346844 -76.48870996827576 731.9790389331816 -60.78040323059463 689.1078807049539C-45.0720964929135 646.2367224767261 8.347299346388695 612.174362030242 51.72786425591656 582.9237366931109C95.10842916544442 553.6731113559796 143.7058133043422 513.8495391921881 199.50298622657255 513.6041286821666C255.3001591488029 513.358718172145 336.0954703867792 547.4988655922205 386.5109017892986 581.4512736329817C436.926333191818 615.403681673743 501.63841917299806 675.348870973429 501.99557464168913 717.3185769267341C502.3527301103802 759.2882828800391 418.0401449733175 791.4772499326477 388.6538346014448 833.2695093528122C359.26752422957213 875.0617687729766 356.48620771841314 933.6384956780902 325.6777124104531 968.0721334477211C294.8692171024931 1002.5057712173519 251.25284308196848 1032.0953498665986 203.80286275368462 1039.8713359705976 " fill="none" stroke-width="4" stroke="url(#SvgjsLinearGradient1585)" opacity="0.5"/><path d="M1351.1258032929006 1115.018899622307C1303.0745188394271 1137.2355855176274 1207.0488499328735 1105.0695416731994 1147.6610277192767 1095.460665037575C1088.2732055056802 1085.8517884019507 1032.3388628234438 1082.833915526871 994.7988700113203 1057.3656398085604C957.2588771991968 1031.89736409025 938.0282286787611 989.1557085246866 922.4210708465355 942.6510107277123C906.8139130143097 896.1463129307381 886.2674164370558 826.8149688182116 901.1559230179662 778.3374530267154C916.0444295988767 729.859937235219 967.0720942192709 683.6914425542378 1011.7521103319984 651.7859159787346C1056.4321264447258 619.8803894032312 1112.6219576818348 585.6271728965006 1169.2360196943314 586.9042935736957C1225.850081706828 588.1814142508907 1301.0903048900254 624.993947445385 1351.4364824069776 659.448640041905C1401.7826599239297 693.9033326384252 1457.2243761238542 743.1804642155253 1471.3130847960442 793.6324491528164C1485.4017934682342 844.0844340901075 1455.9999480239753 908.5961412540701 1435.9687344401182 962.1605496656518C1415.9375208562608 1015.7249580772335 1399.1770877463741 1092.8022137269863 1351.1258032929006 1115.018899622307C1303.0745188394271 1137.2355855176274 1207.0488499328735 1105.0695416731994 1147.6610277192767 1095.460665037575 " fill="url(#SvgjsLinearGradient1586)" stroke="none" opacity="0.5"/><path d="M1062.900850800468 796.6943967569282C1037.1590323089954 828.931452332582 1024.1120628977633 882.962122299945 987.7778560051586 897.0110650927152C951.4436491125539 911.0600078854853 883.8261518935087 909.9905476288982 844.89560944484 880.9880535135495C805.9650669961715 851.9855593982008 778.0083090732 769.0367677948651 754.1946013131469 722.996100400623C730.3808935530939 676.955433006381 701.2863494023 642.9636365917092 702.0133628845215 604.744049148097C702.740376366743 566.5244617044848 736.2196228958678 530.5266786182594 758.556682206476 493.6785757389497C780.8937415170842 456.83047285963994 796.2743325852416 403.4549113681778 836.0357187481706 383.6554318722387C875.7971049110995 363.85595237629957 945.6841494197758 374.27731871492153 997.1249991840498 374.8816987633151C1048.5658489483237 375.4860788117087 1115.2014144414297 368.684960111914 1144.680817333814 387.28171216260023C1174.1602202261988 405.8784642132864 1160.8782318231722 449.60124122435616 1174.0014165383568 486.4622110674324C1187.1246012535416 523.3231809105087 1228.7153672223164 572.2597777924979 1223.4199256249226 608.4475312210578C1218.124484027529 644.6352846496177 1168.9819460914036 672.2142540494804 1142.2287669539946 703.5887316387921C1115.4755878165856 734.9632092281038 1088.6426692919408 764.4573411812744 1062.900850800468 796.6943967569282C1037.1590323089954 828.931452332582 1024.1120628977633 882.962122299945 987.7778560051586 897.0110650927152 " fill="none" stroke-width="4" stroke="url(#SvgjsLinearGradient1587)" opacity="0.5"/></svg>