<svg id="visual" viewBox="0 0 1440 150" width="1440" height="150" xmlns="http://www.w3.org/2000/svg" xmlns:xlink="http://www.w3.org/1999/xlink" version="1.1"><rect x="0" y="0" width="1440" height="150" fill="#fafafa"></rect><path d="M0 54L48 51.5C96 49 192 44 288 41.5C384 39 480 39 576 38C672 37 768 35 864 34.7C960 34.3 1056 35.7 1152 43.8C1248 52 1344 67 1392 74.5L1440 82L1440 151L1392 151C1344 151 1248 151 1152 151C1056 151 960 151 864 151C768 151 672 151 576 151C480 151 384 151 288 151C192 151 96 151 48 151L0 151Z" fill="#6d9dc9"></path><path d="M0 89L48 94.5C96 100 192 111 288 112.5C384 114 480 106 576 102.8C672 99.7 768 101.3 864 105.3C960 109.3 1056 115.7 1152 119C1248 122.3 1344 122.7 1392 122.8L1440 123L1440 151L1392 151C1344 151 1248 151 1152 151C1056 151 960 151 864 151C768 151 672 151 576 151C480 151 384 151 288 151C192 151 96 151 48 151L0 151Z" fill="#324556"></path></svg>