

<svg xmlns="http://www.w3.org/2000/svg" xmlns:xlink="http://www.w3.org/1999/xlink">
  <defs>
    <symbol viewBox='0 0 15 15' id="enter">
   <title>Login</title>
      <path d='M4.5 1C4.22386 1 4 1.22386 4 1.5C4 1.77614 4.22386 2 4.5 2H12V13H4.5C4.22386 13 4 13.2239 4 13.5C4 13.7761 4.22386 14 4.5 14H12C12.5523 14 13 13.5523 13 13V2C13 1.44772 12.5523 1 12 1H4.5ZM6.60355 4.89645C6.40829 4.70118 6.09171 4.70118 5.89645 4.89645C5.70118 5.09171 5.70118 5.40829 5.89645 5.60355L7.29289 7H0.5C0.223858 7 0 7.22386 0 7.5C0 7.77614 0.223858 8 0.5 8H7.29289L5.89645 9.39645C5.70118 9.59171 5.70118 9.90829 5.89645 10.1036C6.09171 10.2988 6.40829 10.2988 6.60355 10.1036L8.85355 7.85355C9.04882 7.65829 9.04882 7.34171 8.85355 7.14645L6.60355 4.89645Z' />
    </symbol>

    <symbol viewBox="0 0 15 15" id="exit">
    <title>Logout</title>
      <path d='M3 1C2.44771 1 2 1.44772 2 2V13C2 13.5523 2.44772 14 3 14H10.5C10.7761 14 11 13.7761 11 13.5C11 13.2239 10.7761 13 10.5 13H3V2L10.5 2C10.7761 2 11 1.77614 11 1.5C11 1.22386 10.7761 1 10.5 1H3ZM12.6036 4.89645C12.4083 4.70118 12.0917 4.70118 11.8964 4.89645C11.7012 5.09171 11.7012 5.40829 11.8964 5.60355L13.2929 7H6.5C6.22386 7 6 7.22386 6 7.5C6 7.77614 6.22386 8 6.5 8H13.2929L11.8964 9.39645C11.7012 9.59171 11.7012 9.90829 11.8964 10.1036C12.0917 10.2988 12.4083 10.2988 12.6036 10.1036L14.8536 7.85355C15.0488 7.65829 15.0488 7.34171 14.8536 7.14645L12.6036 4.89645Z'/>
    </symbol>

    <symbol  viewBox='0 0 15 15' id='eyeNone'>
    <title>Show password</title>
			<path
				d='M13.354 2.354a.5.5 0 00-.708-.708L10.683 3.61A8.475 8.475 0 007.5 3C4.308 3 1.656 4.706.076 7.235a.5.5 0 000 .53c.827 1.323 1.947 2.421 3.285 3.167l-1.715 1.714a.5.5 0 00.708.708l1.963-1.964c.976.393 2.045.61 3.183.61 3.192 0 5.844-1.706 7.424-4.235a.5.5 0 000-.53c-.827-1.323-1.947-2.421-3.285-3.167l1.715-1.714zm-3.45 2.035A7.517 7.517 0 007.5 4C4.803 4 2.53 5.378 1.096 7.5c.777 1.15 1.8 2.081 3.004 2.693L9.904 4.39zM5.096 10.61L10.9 4.807c1.204.612 2.227 1.543 3.004 2.693C12.47 9.622 10.197 11 7.5 11a7.518 7.518 0 01-2.404-.389z'/>
		</symbol>

    <symbol  viewBox='0 0 15 15' id='eyeOpen'>
    <title>Hide password</title>
			<path
				d='M7.5 11c-2.697 0-4.97-1.378-6.404-3.5C2.53 5.378 4.803 4 7.5 4s4.97 1.378 6.404 3.5C12.47 9.622 10.197 11 7.5 11zm0-8C4.308 3 1.656 4.706.076 7.235a.5.5 0 000 .53C1.656 10.294 4.308 12 7.5 12s5.844-1.706 7.424-4.235a.5.5 0 000-.53C13.344 4.706 10.692 3 7.5 3zm0 6.5a2 2 0 100-4 2 2 0 000 4z'/>
		</symbol>

    <symbol viewBox='0 0 15 15' id='trash'>
    <title>Delete</title>
    	<path
				d='M5.5 1C5.22386 1 5 1.22386 5 1.5C5 1.77614 5.22386 2 5.5 2H9.5C9.77614 2 10 1.77614 10 1.5C10 1.22386 9.77614 1 9.5 1H5.5ZM3 3.5C3 3.22386 3.22386 3 3.5 3H5H10H11.5C11.7761 3 12 3.22386 12 3.5C12 3.77614 11.7761 4 11.5 4H11V12C11 12.5523 10.5523 13 10 13H5C4.44772 13 4 12.5523 4 12V4L3.5 4C3.22386 4 3 3.77614 3 3.5ZM5 4H10V12H5V4Z'/>
		</symbol>

    <symbol  viewBox='0 0 15 15' id='menu'>
    <title>Menu</title>
    <path
				d='M1.5 3a.5.5 0 000 1h12a.5.5 0 000-1h-12zM1 7.5a.5.5 0 01.5-.5h12a.5.5 0 010 1h-12a.5.5 0 01-.5-.5zm0 4a.5.5 0 01.5-.5h12a.5.5 0 010 1h-12a.5.5 0 01-.5-.5z'/>
		</symbol>

    <symbol  viewBox='0 0 15 15' id='github'>
    <title>Github</title>
			<path
				d='M7.5.25a7.25 7.25 0 00-2.292 14.13c.363.066.495-.158.495-.35 0-.172-.006-.628-.01-1.233-2.016.438-2.442-.972-2.442-.972-.33-.838-.805-1.06-.805-1.06-.658-.45.05-.441.05-.441.728.051 1.11.747 1.11.747.647 1.108 1.697.788 2.11.602.066-.468.254-.788.46-.969-1.61-.183-3.302-.805-3.302-3.583 0-.792.283-1.438.747-1.945-.075-.184-.324-.92.07-1.92 0 0 .61-.194 1.994.744A6.963 6.963 0 017.5 3.756 6.97 6.97 0 019.315 4c1.384-.938 1.992-.743 1.992-.743.396.998.147 1.735.072 1.919.465.507.745 1.153.745 1.945 0 2.785-1.695 3.398-3.31 3.577.26.224.492.667.492 1.343 0 .97-.009 1.751-.009 1.989 0 .194.131.42.499.349A7.25 7.25 0 007.499.25z'
			/>
		</symbol>

    <symbol  viewBox='0 0 15 15' id='envelope'>
    <title>Mail</title>
			<path
				d='M1 2a1 1 0 00-1 1v9a1 1 0 001 1h13a1 1 0 001-1V3a1 1 0 00-1-1H1zm0 1h13v.925a.448.448 0 00-.241.07L7.5 7.967 1.241 3.995A.448.448 0 001 3.925V3zm0 1.908V12h13V4.908L7.741 8.88a.45.45 0 01-.482 0L1 4.908z'/>
		</symbol>

    <symbol viewBox="0 0 15 15" id='mobile'>
     <title>Mobile</title>
     <path d="M4 2.5C4 2.22386 4.22386 2 4.5 2H10.5C10.7761 2 11 2.22386 11 2.5V12.5C11 12.7761 10.7761 13 10.5 13H4.5C4.22386 13 4 12.7761 4 12.5V2.5ZM4.5 1C3.67157 1 3 1.67157 3 2.5V12.5C3 13.3284 3.67157 14 4.5 14H10.5C11.3284 14 12 13.3284 12 12.5V2.5C12 1.67157 11.3284 1 10.5 1H4.5ZM6 11.65C5.8067 11.65 5.65 11.8067 5.65 12C5.65 12.1933 5.8067 12.35 6 12.35H9C9.1933 12.35 9.35 12.1933 9.35 12C9.35 11.8067 9.1933 11.65 9 11.65H6Z"></path>
     </symbol>

    <symbol viewBox="0 0 15 15" id='home'>
    <title>Home</title> 
    <path d="M7.07926 0.222253C7.31275 -0.007434 7.6873 -0.007434 7.92079 0.222253L14.6708 6.86227C14.907 7.09465 14.9101 7.47453 14.6778 7.71076C14.4454 7.947 14.0655 7.95012 13.8293 7.71773L13 6.90201V12.5C13 12.7761 12.7762 13 12.5 13H2.50002C2.22388 13 2.00002 12.7761 2.00002 12.5V6.90201L1.17079 7.71773C0.934558 7.95012 0.554672 7.947 0.32229 7.71076C0.0899079 7.47453 0.0930283 7.09465 0.32926 6.86227L7.07926 0.222253ZM7.50002 1.49163L12 5.91831V12H10V8.49999C10 8.22385 9.77617 7.99999 9.50002 7.99999H6.50002C6.22388 7.99999 6.00002 8.22385 6.00002 8.49999V12H3.00002V5.91831L7.50002 1.49163ZM7.00002 12H9.00002V8.99999H7.00002V12Z"></path>
    </symbol>

    <symbol viewBox="0 0 15 15" id='linkedIn'>
    <title>Linked In</title> 
    <path d="M2 1C1.44772 1 1 1.44772 1 2V13C1 13.5523 1.44772 14 2 14H13C13.5523 14 14 13.5523 14 13V2C14 1.44772 13.5523 1 13 1H2ZM3.05 6H4.95V12H3.05V6ZM5.075 4.005C5.075 4.59871 4.59371 5.08 4 5.08C3.4063 5.08 2.925 4.59871 2.925 4.005C2.925 3.41129 3.4063 2.93 4 2.93C4.59371 2.93 5.075 3.41129 5.075 4.005ZM12 8.35713C12 6.55208 10.8334 5.85033 9.67449 5.85033C9.29502 5.83163 8.91721 5.91119 8.57874 6.08107C8.32172 6.21007 8.05265 6.50523 7.84516 7.01853H7.79179V6.00044H6V12.0047H7.90616V8.8112C7.8786 8.48413 7.98327 8.06142 8.19741 7.80987C8.41156 7.55832 8.71789 7.49825 8.95015 7.46774H9.02258C9.62874 7.46774 10.0786 7.84301 10.0786 8.78868V12.0047H11.9847L12 8.35713Z"></path>
    </symbol>

    <symbol viewBox="0 0 15 15" id='globe'>
    <title>Website</title> 
    <path d="M7.49996 1.80002C4.35194 1.80002 1.79996 4.352 1.79996 7.50002C1.79996 10.648 4.35194 13.2 7.49996 13.2C10.648 13.2 13.2 10.648 13.2 7.50002C13.2 4.352 10.648 1.80002 7.49996 1.80002ZM0.899963 7.50002C0.899963 3.85494 3.85488 0.900024 7.49996 0.900024C11.145 0.900024 14.1 3.85494 14.1 7.50002C14.1 11.1451 11.145 14.1 7.49996 14.1C3.85488 14.1 0.899963 11.1451 0.899963 7.50002Z" ></path>
    <path d="M13.4999 7.89998H1.49994V7.09998H13.4999V7.89998Z"></path>
    <path d="M7.09991 13.5V1.5H7.89991V13.5H7.09991zM10.375 7.49998C10.375 5.32724 9.59364 3.17778 8.06183 1.75656L8.53793 1.24341C10.2396 2.82218 11.075 5.17273 11.075 7.49998 11.075 9.82724 10.2396 12.1778 8.53793 13.7566L8.06183 13.2434C9.59364 11.8222 10.375 9.67273 10.375 7.49998zM3.99969 7.5C3.99969 5.17611 4.80786 2.82678 6.45768 1.24719L6.94177 1.75281C5.4582 3.17323 4.69969 5.32389 4.69969 7.5 4.6997 9.67611 5.45822 11.8268 6.94179 13.2472L6.45769 13.7528C4.80788 12.1732 3.9997 9.8239 3.99969 7.5z">
    </path>
    <path d="M7.49996 3.95801C9.66928 3.95801 11.8753 4.35915 13.3706 5.19448 13.5394 5.28875 13.5998 5.50197 13.5055 5.67073 13.4113 5.83948 13.198 5.89987 13.0293 5.8056 11.6794 5.05155 9.60799 4.65801 7.49996 4.65801 5.39192 4.65801 3.32052 5.05155 1.97064 5.8056 1.80188 5.89987 1.58866 5.83948 1.49439 5.67073 1.40013 5.50197 1.46051 5.28875 1.62927 5.19448 3.12466 4.35915 5.33063 3.95801 7.49996 3.95801zM7.49996 10.85C9.66928 10.85 11.8753 10.4488 13.3706 9.6135 13.5394 9.51924 13.5998 9.30601 13.5055 9.13726 13.4113 8.9685 13.198 8.90812 13.0293 9.00238 11.6794 9.75643 9.60799 10.15 7.49996 10.15 5.39192 10.15 3.32052 9.75643 1.97064 9.00239 1.80188 8.90812 1.58866 8.9685 1.49439 9.13726 1.40013 9.30601 1.46051 9.51924 1.62927 9.6135 3.12466 10.4488 5.33063 10.85 7.49996 10.85z"></path>
    </symbol>

    
  </defs>
</svg>