

<svg xmlns="http://www.w3.org/2000/svg" xmlns:xlink="http://www.w3.org/1999/xlink">
  <defs>
    <symbol viewBox='0 0 15 15' id="enter">
   <title>Login</title>
      <path d='M4.5 1C4.22386 1 4 1.22386 4 1.5C4 1.77614 4.22386 2 4.5 2H12V13H4.5C4.22386 13 4 13.2239 4 13.5C4 13.7761 4.22386 14 4.5 14H12C12.5523 14 13 13.5523 13 13V2C13 1.44772 12.5523 1 12 1H4.5ZM6.60355 4.89645C6.40829 4.70118 6.09171 4.70118 5.89645 4.89645C5.70118 5.09171 5.70118 5.40829 5.89645 5.60355L7.29289 7H0.5C0.223858 7 0 7.22386 0 7.5C0 7.77614 0.223858 8 0.5 8H7.29289L5.89645 9.39645C5.70118 9.59171 5.70118 9.90829 5.89645 10.1036C6.09171 10.2988 6.40829 10.2988 6.60355 10.1036L8.85355 7.85355C9.04882 7.65829 9.04882 7.34171 8.85355 7.14645L6.60355 4.89645Z' />
    </symbol>

    <symbol viewBox="0 0 15 15" id="exit">
    <title>Logout</title>
      <path d='M3 1C2.44771 1 2 1.44772 2 2V13C2 13.5523 2.44772 14 3 14H10.5C10.7761 14 11 13.7761 11 13.5C11 13.2239 10.7761 13 10.5 13H3V2L10.5 2C10.7761 2 11 1.77614 11 1.5C11 1.22386 10.7761 1 10.5 1H3ZM12.6036 4.89645C12.4083 4.70118 12.0917 4.70118 11.8964 4.89645C11.7012 5.09171 11.7012 5.40829 11.8964 5.60355L13.2929 7H6.5C6.22386 7 6 7.22386 6 7.5C6 7.77614 6.22386 8 6.5 8H13.2929L11.8964 9.39645C11.7012 9.59171 11.7012 9.90829 11.8964 10.1036C12.0917 10.2988 12.4083 10.2988 12.6036 10.1036L14.8536 7.85355C15.0488 7.65829 15.0488 7.34171 14.8536 7.14645L12.6036 4.89645Z'/>
    </symbol>

    <symbol  viewBox='0 0 15 15' id='eyeNone'>
    <title>Show password</title>
			<path
				d='M13.354 2.354a.5.5 0 00-.708-.708L10.683 3.61A8.475 8.475 0 007.5 3C4.308 3 1.656 4.706.076 7.235a.5.5 0 000 .53c.827 1.323 1.947 2.421 3.285 3.167l-1.715 1.714a.5.5 0 00.708.708l1.963-1.964c.976.393 2.045.61 3.183.61 3.192 0 5.844-1.706 7.424-4.235a.5.5 0 000-.53c-.827-1.323-1.947-2.421-3.285-3.167l1.715-1.714zm-3.45 2.035A7.517 7.517 0 007.5 4C4.803 4 2.53 5.378 1.096 7.5c.777 1.15 1.8 2.081 3.004 2.693L9.904 4.39zM5.096 10.61L10.9 4.807c1.204.612 2.227 1.543 3.004 2.693C12.47 9.622 10.197 11 7.5 11a7.518 7.518 0 01-2.404-.389z'/>
		</symbol>

    <symbol  viewBox='0 0 15 15' id='eyeOpen'>
    <title>Hide password</title>
			<path
				d='M7.5 11c-2.697 0-4.97-1.378-6.404-3.5C2.53 5.378 4.803 4 7.5 4s4.97 1.378 6.404 3.5C12.47 9.622 10.197 11 7.5 11zm0-8C4.308 3 1.656 4.706.076 7.235a.5.5 0 000 .53C1.656 10.294 4.308 12 7.5 12s5.844-1.706 7.424-4.235a.5.5 0 000-.53C13.344 4.706 10.692 3 7.5 3zm0 6.5a2 2 0 100-4 2 2 0 000 4z'/>
		</symbol>

    <symbol viewBox='0 0 15 15' id='trash'>
    <title>Delete</title>
    	<path
				d='M5.5 1C5.22386 1 5 1.22386 5 1.5C5 1.77614 5.22386 2 5.5 2H9.5C9.77614 2 10 1.77614 10 1.5C10 1.22386 9.77614 1 9.5 1H5.5ZM3 3.5C3 3.22386 3.22386 3 3.5 3H5H10H11.5C11.7761 3 12 3.22386 12 3.5C12 3.77614 11.7761 4 11.5 4H11V12C11 12.5523 10.5523 13 10 13H5C4.44772 13 4 12.5523 4 12V4L3.5 4C3.22386 4 3 3.77614 3 3.5ZM5 4H10V12H5V4Z'/>
		</symbol>

    <symbol  viewBox='0 0 15 15' id='menu'>
    <title>Menu</title>
    <path
				d='M1.5 3a.5.5 0 000 1h12a.5.5 0 000-1h-12zM1 7.5a.5.5 0 01.5-.5h12a.5.5 0 010 1h-12a.5.5 0 01-.5-.5zm0 4a.5.5 0 01.5-.5h12a.5.5 0 010 1h-12a.5.5 0 01-.5-.5z'/>
		</symbol>

    <symbol  viewBox='0 0 15 15' id='github'>
    <title>Github</title>
			<path
				d='M7.5.25a7.25 7.25 0 00-2.292 14.13c.363.066.495-.158.495-.35 0-.172-.006-.628-.01-1.233-2.016.438-2.442-.972-2.442-.972-.33-.838-.805-1.06-.805-1.06-.658-.45.05-.441.05-.441.728.051 1.11.747 1.11.747.647 1.108 1.697.788 2.11.602.066-.468.254-.788.46-.969-1.61-.183-3.302-.805-3.302-3.583 0-.792.283-1.438.747-1.945-.075-.184-.324-.92.07-1.92 0 0 .61-.194 1.994.744A6.963 6.963 0 017.5 3.756 6.97 6.97 0 019.315 4c1.384-.938 1.992-.743 1.992-.743.396.998.147 1.735.072 1.919.465.507.745 1.153.745 1.945 0 2.785-1.695 3.398-3.31 3.577.26.224.492.667.492 1.343 0 .97-.009 1.751-.009 1.989 0 .194.131.42.499.349A7.25 7.25 0 007.499.25z'
			/>
		</symbol>

    <symbol  viewBox='0 0 15 15' id='envelope'>
    <title>Mail</title>
			<path
				d='M1 2a1 1 0 00-1 1v9a1 1 0 001 1h13a1 1 0 001-1V3a1 1 0 00-1-1H1zm0 1h13v.925a.448.448 0 00-.241.07L7.5 7.967 1.241 3.995A.448.448 0 001 3.925V3zm0 1.908V12h13V4.908L7.741 8.88a.45.45 0 01-.482 0L1 4.908z'/>
		</symbol>

    <symbol viewBox="0 0 15 15" id='mobile'>
     <title>Mobile</title>
     <path d="M4 2.5C4 2.22386 4.22386 2 4.5 2H10.5C10.7761 2 11 2.22386 11 2.5V12.5C11 12.7761 10.7761 13 10.5 13H4.5C4.22386 13 4 12.7761 4 12.5V2.5ZM4.5 1C3.67157 1 3 1.67157 3 2.5V12.5C3 13.3284 3.67157 14 4.5 14H10.5C11.3284 14 12 13.3284 12 12.5V2.5C12 1.67157 11.3284 1 10.5 1H4.5ZM6 11.65C5.8067 11.65 5.65 11.8067 5.65 12C5.65 12.1933 5.8067 12.35 6 12.35H9C9.1933 12.35 9.35 12.1933 9.35 12C9.35 11.8067 9.1933 11.65 9 11.65H6Z"></path>
     </symbol>

    <symbol viewBox="0 0 15 15" id='home'>
    <title>Home</title> 
    <path d="M7.07926 0.222253C7.31275 -0.007434 7.6873 -0.007434 7.92079 0.222253L14.6708 6.86227C14.907 7.09465 14.9101 7.47453 14.6778 7.71076C14.4454 7.947 14.0655 7.95012 13.8293 7.71773L13 6.90201V12.5C13 12.7761 12.7762 13 12.5 13H2.50002C2.22388 13 2.00002 12.7761 2.00002 12.5V6.90201L1.17079 7.71773C0.934558 7.95012 0.554672 7.947 0.32229 7.71076C0.0899079 7.47453 0.0930283 7.09465 0.32926 6.86227L7.07926 0.222253ZM7.50002 1.49163L12 5.91831V12H10V8.49999C10 8.22385 9.77617 7.99999 9.50002 7.99999H6.50002C6.22388 7.99999 6.00002 8.22385 6.00002 8.49999V12H3.00002V5.91831L7.50002 1.49163ZM7.00002 12H9.00002V8.99999H7.00002V12Z"></path>
    </symbol>

    <symbol viewBox="0 0 15 15" id='linkedIn'>
    <title>Linked In</title> 
    <path d="M2 1C1.44772 1 1 1.44772 1 2V13C1 13.5523 1.44772 14 2 14H13C13.5523 14 14 13.5523 14 13V2C14 1.44772 13.5523 1 13 1H2ZM3.05 6H4.95V12H3.05V6ZM5.075 4.005C5.075 4.59871 4.59371 5.08 4 5.08C3.4063 5.08 2.925 4.59871 2.925 4.005C2.925 3.41129 3.4063 2.93 4 2.93C4.59371 2.93 5.075 3.41129 5.075 4.005ZM12 8.35713C12 6.55208 10.8334 5.85033 9.67449 5.85033C9.29502 5.83163 8.91721 5.91119 8.57874 6.08107C8.32172 6.21007 8.05265 6.50523 7.84516 7.01853H7.79179V6.00044H6V12.0047H7.90616V8.8112C7.8786 8.48413 7.98327 8.06142 8.19741 7.80987C8.41156 7.55832 8.71789 7.49825 8.95015 7.46774H9.02258C9.62874 7.46774 10.0786 7.84301 10.0786 8.78868V12.0047H11.9847L12 8.35713Z"></path>
    </symbol>

    <symbol viewBox="0 0 15 15" id='globe'>
    <title>Website</title> 
    <path d="M7.49996 1.80002C4.35194 1.80002 1.79996 4.352 1.79996 7.50002C1.79996 10.648 4.35194 13.2 7.49996 13.2C10.648 13.2 13.2 10.648 13.2 7.50002C13.2 4.352 10.648 1.80002 7.49996 1.80002ZM0.899963 7.50002C0.899963 3.85494 3.85488 0.900024 7.49996 0.900024C11.145 0.900024 14.1 3.85494 14.1 7.50002C14.1 11.1451 11.145 14.1 7.49996 14.1C3.85488 14.1 0.899963 11.1451 0.899963 7.50002Z" ></path>
    <path d="M13.4999 7.89998H1.49994V7.09998H13.4999V7.89998Z"></path>
    <path d="M7.09991 13.5V1.5H7.89991V13.5H7.09991zM10.375 7.49998C10.375 5.32724 9.59364 3.17778 8.06183 1.75656L8.53793 1.24341C10.2396 2.82218 11.075 5.17273 11.075 7.49998 11.075 9.82724 10.2396 12.1778 8.53793 13.7566L8.06183 13.2434C9.59364 11.8222 10.375 9.67273 10.375 7.49998zM3.99969 7.5C3.99969 5.17611 4.80786 2.82678 6.45768 1.24719L6.94177 1.75281C5.4582 3.17323 4.69969 5.32389 4.69969 7.5 4.6997 9.67611 5.45822 11.8268 6.94179 13.2472L6.45769 13.7528C4.80788 12.1732 3.9997 9.8239 3.99969 7.5z">
    </path>
    <path d="M7.49996 3.95801C9.66928 3.95801 11.8753 4.35915 13.3706 5.19448 13.5394 5.28875 13.5998 5.50197 13.5055 5.67073 13.4113 5.83948 13.198 5.89987 13.0293 5.8056 11.6794 5.05155 9.60799 4.65801 7.49996 4.65801 5.39192 4.65801 3.32052 5.05155 1.97064 5.8056 1.80188 5.89987 1.58866 5.83948 1.49439 5.67073 1.40013 5.50197 1.46051 5.28875 1.62927 5.19448 3.12466 4.35915 5.33063 3.95801 7.49996 3.95801zM7.49996 10.85C9.66928 10.85 11.8753 10.4488 13.3706 9.6135 13.5394 9.51924 13.5998 9.30601 13.5055 9.13726 13.4113 8.9685 13.198 8.90812 13.0293 9.00238 11.6794 9.75643 9.60799 10.15 7.49996 10.15 5.39192 10.15 3.32052 9.75643 1.97064 9.00239 1.80188 8.90812 1.58866 8.9685 1.49439 9.13726 1.40013 9.30601 1.46051 9.51924 1.62927 9.6135 3.12466 10.4488 5.33063 10.85 7.49996 10.85z"></path>
    </symbol>

    <symbol viewBox="0 0 841.9 595.3" id='react'>
    <title>React Logo</title> 
    <g><path d="M666.3 296.5c0-32.5-40.7-63.3-103.1-82.4 14.4-63.6 8-114.2-20.2-130.4-6.5-3.8-14.1-5.6-22.4-5.6v22.3c4.6 0 8.3.9 11.4 2.6 13.6 7.8 19.5 37.5 14.9 75.7-1.1 9.4-2.9 19.3-5.1 29.4-19.6-4.8-41-8.5-63.5-10.9-13.5-18.5-27.5-35.3-41.6-50 32.6-30.3 63.2-46.9 84-46.9V78c-27.5 0-63.5 19.6-99.9 53.6-36.4-33.8-72.4-53.2-99.9-53.2v22.3c20.7 0 51.4 16.5 84 46.6-14 14.7-28 31.4-41.3 49.9-22.6 2.4-44 6.1-63.6 11-2.3-10-4-19.7-5.2-29-4.7-38.2 1.1-67.9 14.6-75.8 3-1.8 6.9-2.6 11.5-2.6V78.5c-8.4 0-16 1.8-22.6 5.6-28.1 16.2-34.4 66.7-19.9 130.1-62.2 19.2-102.7 49.9-102.7 82.3 0 32.5 40.7 63.3 103.1 82.4-14.4 63.6-8 114.2 20.2 130.4 6.5 3.8 14.1 5.6 22.5 5.6 27.5 0 63.5-19.6 99.9-53.6 36.4 33.8 72.4 53.2 99.9 53.2 8.4 0 16-1.8 22.6-5.6 28.1-16.2 34.4-66.7 19.9-130.1 62-19.1 102.5-49.9 102.5-82.3zm-130.2-66.7c-3.7 12.9-8.3 26.2-13.5 39.5-4.1-8-8.4-16-13.1-24-4.6-8-9.5-15.8-14.4-23.4 14.2 2.1 27.9 4.7 41 7.9zm-45.8 106.5c-7.8 13.5-15.8 26.3-24.1 38.2-14.9 1.3-30 2-45.2 2-15.1 0-30.2-.7-45-1.9-8.3-11.9-16.4-24.6-24.2-38-7.6-13.1-14.5-26.4-20.8-39.8 6.2-13.4 13.2-26.8 20.7-39.9 7.8-13.5 15.8-26.3 24.1-38.2 14.9-1.3 30-2 45.2-2 15.1 0 30.2.7 45 1.9 8.3 11.9 16.4 24.6 24.2 38 7.6 13.1 14.5 26.4 20.8 39.8-6.3 13.4-13.2 26.8-20.7 39.9zm32.3-13c5.4 13.4 10 26.8 13.8 39.8-13.1 3.2-26.9 5.9-41.2 8 4.9-7.7 9.8-15.6 14.4-23.7 4.6-8 8.9-16.1 13-24.1zM421.2 430c-9.3-9.6-18.6-20.3-27.8-32 9 .4 18.2.7 27.5.7 9.4 0 18.7-.2 27.8-.7-9 11.7-18.3 22.4-27.5 32zm-74.4-58.9c-14.2-2.1-27.9-4.7-41-7.9 3.7-12.9 8.3-26.2 13.5-39.5 4.1 8 8.4 16 13.1 24 4.7 8 9.5 15.8 14.4 23.4zM420.7 163c9.3 9.6 18.6 20.3 27.8 32-9-.4-18.2-.7-27.5-.7-9.4 0-18.7.2-27.8.7 9-11.7 18.3-22.4 27.5-32zm-74 58.9c-4.9 7.7-9.8 15.6-14.4 23.7-4.6 8-8.9 16-13 24-5.4-13.4-10-26.8-13.8-39.8 13.1-3.1 26.9-5.8 41.2-7.9zm-90.5 125.2c-35.4-15.1-58.3-34.9-58.3-50.6 0-15.7 22.9-35.6 58.3-50.6 8.6-3.7 18-7 27.7-10.1 5.7 19.6 13.2 40 22.5 60.9-9.2 20.8-16.6 41.1-22.2 60.6-9.9-3.1-19.3-6.5-28-10.2zM310 490c-13.6-7.8-19.5-37.5-14.9-75.7 1.1-9.4 2.9-19.3 5.1-29.4 19.6 4.8 41 8.5 63.5 10.9 13.5 18.5 27.5 35.3 41.6 50-32.6 30.3-63.2 46.9-84 46.9-4.5-.1-8.3-1-11.3-2.7zm237.2-76.2c4.7 38.2-1.1 67.9-14.6 75.8-3 1.8-6.9 2.6-11.5 2.6-20.7 0-51.4-16.5-84-46.6 14-14.7 28-31.4 41.3-49.9 22.6-2.4 44-6.1 63.6-11 2.3 10.1 4.1 19.8 5.2 29.1zm38.5-66.7c-8.6 3.7-18 7-27.7 10.1-5.7-19.6-13.2-40-22.5-60.9 9.2-20.8 16.6-41.1 22.2-60.6 9.9 3.1 19.3 6.5 28.1 10.2 35.4 15.1 58.3 34.9 58.3 50.6-.1 15.7-23 35.6-58.4 50.6zM320.8 78.4z"/><circle cx="420.9" cy="296.5" r="45.7"/><path d="M520.5 78.1z"/></g>
    </symbol>

    <symbol viewBox="0 0 256 257" id='vite'>
    <title>Vite Logo</title>
    <defs><linearGradient id="IconifyId1813088fe1fbc01fb466" x1="-.828%" x2="57.636%" y1="7.652%" y2="78.411%"><stop offset="0%" stop-color="#41D1FF"></stop><stop offset="100%" stop-color="#BD34FE"></stop></linearGradient><linearGradient id="IconifyId1813088fe1fbc01fb467" x1="43.376%" x2="50.316%" y1="2.242%" y2="89.03%"><stop offset="0%" stop-color="#FFEA83"></stop><stop offset="8.333%" stop-color="#FFDD35"></stop><stop offset="100%" stop-color="#FFA800"></stop></linearGradient></defs><path fill="url(#IconifyId1813088fe1fbc01fb466)" d="M255.153 37.938L134.897 252.976c-2.483 4.44-8.862 4.466-11.382.048L.875 37.958c-2.746-4.814 1.371-10.646 6.827-9.67l120.385 21.517a6.537 6.537 0 0 0 2.322-.004l117.867-21.483c5.438-.991 9.574 4.796 6.877 9.62Z"></path><path fill="url(#IconifyId1813088fe1fbc01fb467)" d="M185.432.063L96.44 17.501a3.268 3.268 0 0 0-2.634 3.014l-5.474 92.456a3.268 3.268 0 0 0 3.997 3.378l24.777-5.718c2.318-.535 4.413 1.507 3.936 3.838l-7.361 36.047c-.495 2.426 1.782 4.5 4.151 3.78l15.304-4.649c2.372-.72 4.652 1.36 4.15 3.788l-11.698 56.621c-.732 3.542 3.979 5.473 5.943 2.437l1.313-2.028l72.516-144.72c1.215-2.423-.88-5.186-3.54-4.672l-25.505 4.922c-2.396.462-4.435-1.77-3.759-4.114l16.646-57.705c.677-2.35-1.37-4.583-3.769-4.113Z"></path>
    </symbol>

    <symbol viewBox="0 0 15 15" id='chevronUp'>
    <title>Chevron Up</title>
    <path d="M3.13523 8.84197C3.3241 9.04343 3.64052 9.05363 3.84197 8.86477L7.5 5.43536L11.158 8.86477C11.3595 9.05363 11.6759 9.04343 11.8648 8.84197C12.0536 8.64051 12.0434 8.32409 11.842 8.13523L7.84197 4.38523C7.64964 4.20492 7.35036 4.20492 7.15803 4.38523L3.15803 8.13523C2.95657 8.32409 2.94637 8.64051 3.13523 8.84197Z"></path>
    </symbol>

    <symbol  viewBox="0 0 15 15" id='chevronDown'>
    <title>Chevron Down</title>
    <path d="M3.13523 6.15803C3.3241 5.95657 3.64052 5.94637 3.84197 6.13523L7.5 9.56464L11.158 6.13523C11.3595 5.94637 11.6759 5.95657 11.8648 6.15803C12.0536 6.35949 12.0434 6.67591 11.842 6.86477L7.84197 10.6148C7.64964 10.7951 7.35036 10.7951 7.15803 10.6148L3.15803 6.86477C2.95657 6.67591 2.94637 6.35949 3.13523 6.15803Z"></path>
    </symbol>

    <symbol viewBox="0 0 15 15" id='chevronRight'>
    <title>Chevron Right</title>
    <path d="M6.1584 3.13508C6.35985 2.94621 6.67627 2.95642 6.86514 3.15788L10.6151 7.15788C10.7954 7.3502 10.7954 7.64949 10.6151 7.84182L6.86514 11.8418C6.67627 12.0433 6.35985 12.0535 6.1584 11.8646C5.95694 11.6757 5.94673 11.3593 6.1356 11.1579L9.565 7.49985L6.1356 3.84182C5.94673 3.64036 5.95694 3.32394 6.1584 3.13508Z"></path></symbol>

    <symbol  viewBox="0 0 15 15" id='plus'>
    <title>Plus</title>
    <path d="M8 2.75C8 2.47386 7.77614 2.25 7.5 2.25C7.22386 2.25 7 2.47386 7 2.75V7H2.75C2.47386 7 2.25 7.22386 2.25 7.5C2.25 7.77614 2.47386 8 2.75 8H7V12.25C7 12.5261 7.22386 12.75 7.5 12.75C7.77614 12.75 8 12.5261 8 12.25V8H12.25C12.5261 8 12.75 7.77614 12.75 7.5C12.75 7.22386 12.5261 7 12.25 7H8V2.75Z"></path>
    </symbol>

    <symbol  viewBox="0 0 15 15" id='person'>
    <title>Profile image icon</title>
    <path d="M7.5 0.875C5.49797 0.875 3.875 2.49797 3.875 4.5C3.875 6.15288 4.98124 7.54738 6.49373 7.98351C5.2997 8.12901 4.27557 8.55134 3.50407 9.31167C2.52216 10.2794 2.02502 11.72 2.02502 13.5999C2.02502 13.8623 2.23769 14.0749 2.50002 14.0749C2.76236 14.0749 2.97502 13.8623 2.97502 13.5999C2.97502 11.8799 3.42786 10.7206 4.17091 9.9883C4.91536 9.25463 6.02674 8.87499 7.49995 8.87499C8.97317 8.87499 10.0846 9.25463 10.8291 9.98831C11.5721 10.7206 12.025 11.8799 12.025 13.5999C12.025 13.8623 12.2376 14.0749 12.5 14.0749C12.7623 14.075 12.975 13.8623 12.975 13.6C12.975 11.72 12.4778 10.2794 11.4959 9.31166C10.7244 8.55135 9.70025 8.12903 8.50625 7.98352C10.0187 7.5474 11.125 6.15289 11.125 4.5C11.125 2.49797 9.50203 0.875 7.5 0.875ZM4.825 4.5C4.825 3.02264 6.02264 1.825 7.5 1.825C8.97736 1.825 10.175 3.02264 10.175 4.5C10.175 5.97736 8.97736 7.175 7.5 7.175C6.02264 7.175 4.825 5.97736 4.825 4.5Z"></path>
    </symbol>

    <symbol viewBox="0 0 15 15" id='file'>
    <title>File icon</title>
    <path d="M3.5 2C3.22386 2 3 2.22386 3 2.5V12.5C3 12.7761 3.22386 13 3.5 13H11.5C11.7761 13 12 12.7761 12 12.5V6H8.5C8.22386 6 8 5.77614 8 5.5V2H3.5ZM9 2.70711L11.2929 5H9V2.70711ZM2 2.5C2 1.67157 2.67157 1 3.5 1H8.5C8.63261 1 8.75979 1.05268 8.85355 1.14645L12.8536 5.14645C12.9473 5.24021 13 5.36739 13 5.5V12.5C13 13.3284 12.3284 14 11.5 14H3.5C2.67157 14 2 13.3284 2 12.5V2.5Z"></path></symbol>

    
  </defs>
</svg>